<svg width="397" height="297" viewBox="0 0 397 297" fill="none" xmlns="http://www.w3.org/2000/svg">
<path d="M397 278.788C397 280.429 395.501 282.022 392.694 283.535C378.297 291.292 329.478 297 271.463 297C269.18 297 266.914 296.991 264.663 296.972C198.492 296.46 145.926 288.514 145.926 278.788C145.926 268.729 202.13 260.575 271.463 260.575C290.45 260.575 308.449 261.188 324.58 262.281C328.634 262.557 332.566 262.862 336.374 263.197C337.958 263.333 339.518 263.477 341.056 263.63C348.305 264.33 355.021 265.139 361.098 266.039C364.049 266.475 366.843 266.932 369.482 267.408C376.354 268.653 382.12 270.03 386.573 271.507C393.278 273.74 397 276.202 397 278.788Z" fill="#F0F0F0"/>
<path d="M251.074 186.526C251.074 193.158 194.87 198.534 125.537 198.534C114.079 198.534 102.98 198.386 92.4334 198.109C51.7579 197.053 19.3063 194.083 6.2369 190.272C2.1909 189.095 0 187.835 0 186.526C0 185.029 2.87053 183.592 8.11191 182.271C11.1703 181.498 15.0364 180.766 19.6101 180.077C19.6461 180.073 19.6861 180.069 19.7261 180.061C30.2008 178.496 44.3736 177.175 61.0652 176.223C79.9078 175.138 101.965 174.518 125.537 174.518C194.87 174.518 251.074 179.893 251.074 186.526Z" fill="#F0F0F0"/>
<path d="M245.37 127.568L236.203 125.013C236.203 125.013 232.613 124.295 234.807 117.275C237.001 110.254 241.352 112.219 241.352 112.219L249.483 114.584L252.694 115.577L248.177 121.922L247.798 126.151L245.37 127.568Z" fill="#3F3D56"/>
<path d="M263.082 109.019L265.958 120.52L251.222 134.818L249.955 135.136L246.576 134.186L243.7 122.685L246.613 119.618L243.635 118.836L249.99 112.66L253.306 113.357L255.965 110.713L254.17 109.994L254.001 109.318L256.176 107.604L263.082 109.019Z" fill="#3F3D56"/>
<path d="M249.276 125.241L251.179 132.852L259.962 124.539L257.763 116.823L249.276 125.241Z" fill="#FA9691"/>
<path d="M263.082 109.019L263.485 110.632L248.832 124.903L247.565 125.22L244.292 124.334L244.111 124.329L243.7 122.685L246.613 119.618L243.635 118.836L249.99 112.66L253.306 113.357L255.965 110.713L254.17 109.994L254.001 109.318L256.176 107.604L263.082 109.019Z" stroke="#3F3D56" stroke-miterlimit="10"/>
<path d="M256.514 109.677C257.167 109.513 257.607 109.02 257.496 108.577C257.385 108.133 256.765 107.906 256.112 108.07C255.459 108.234 255.02 108.726 255.131 109.17C255.242 109.613 255.861 109.84 256.514 109.677Z" fill="#FA9691"/>
<path d="M247.205 121.986C247.858 121.822 248.298 121.329 248.187 120.886C248.076 120.442 247.456 120.215 246.803 120.379C246.15 120.543 245.711 121.035 245.822 121.479C245.933 121.922 246.552 122.149 247.205 121.986Z" fill="#FA9691"/>
<path d="M239.279 141.896L241.278 135.091C241.278 135.091 236.081 122.683 242.078 121.482C248.075 120.281 248.475 133.09 248.475 133.09L246.076 140.695L239.279 141.896Z" fill="#FFB6B6"/>
<path d="M276.393 128.665C285.164 128.665 292.275 121.546 292.275 112.765C292.275 103.984 285.164 96.8652 276.393 96.8652C267.623 96.8652 260.512 103.984 260.512 112.765C260.512 121.546 267.623 128.665 276.393 128.665Z" fill="#FFB6B6"/>
<path d="M271.255 123.988C271.255 123.988 270.321 135.679 267.986 136.615C265.65 137.55 293.209 144.097 293.209 144.097L286.202 136.147C286.202 136.147 284.801 123.988 288.071 121.183L271.255 123.988Z" fill="#FFB6B6"/>
<path d="M248.875 138.293L242.478 137.493C242.478 137.493 234.882 141.495 234.882 146.699C234.882 151.902 230.484 160.308 230.484 160.308C230.484 160.308 227.286 171.515 234.482 172.316C241.678 173.117 248.075 160.308 248.075 160.308L248.875 138.293Z" fill="#F0F0F0"/>
<path d="M245.276 201.936C245.276 201.936 231.283 188.727 227.285 189.528C223.288 190.328 215.292 191.529 215.292 197.533C215.292 203.537 228.485 217.547 228.485 217.547C228.485 217.547 238.48 239.561 248.075 240.362C254.387 240.935 260.661 241.871 266.866 243.164C266.866 243.164 262.468 259.175 264.867 263.578C267.265 267.98 276.461 273.184 277.26 272.784C278.06 272.383 289.254 261.976 294.052 247.166C298.849 232.356 302.048 221.149 297.65 220.348C293.252 219.548 245.276 201.936 245.276 201.936Z" fill="#2F2E41"/>
<path d="M216.491 196.332C216.491 196.332 213.692 195.932 214.092 202.737C214.492 209.541 215.691 233.958 217.69 238.761C219.689 243.564 220.089 249.168 219.29 251.169C218.49 253.17 216.891 256.373 219.689 256.773C222.488 257.173 234.082 255.572 235.281 255.172C236.481 254.772 237.68 247.967 236.881 247.967C236.081 247.967 234.082 247.567 234.882 244.765C235.681 241.963 236.081 241.963 234.882 241.162C233.682 240.362 230.484 239.161 231.283 238.36C232.083 237.56 232.883 218.747 232.883 218.747L216.491 196.332Z" fill="#2F2E41"/>
<path d="M220.489 255.572C220.489 255.572 213.692 253.571 212.893 257.974C212.893 257.974 211.693 264.778 216.891 267.18C220.245 268.767 223.455 270.642 226.486 272.784C226.486 272.784 234.882 275.986 235.281 271.983C235.681 267.98 233.682 253.571 233.682 253.571L220.489 255.572Z" fill="#2F2E41"/>
<path d="M265.666 260.375L278.46 249.968C278.46 249.968 276.061 262.777 279.259 265.179L280.72 269.455L276.629 272.805C276.629 272.805 264.067 270.782 265.666 260.375Z" fill="#2F2E41"/>
<path d="M283.657 242.763C283.657 242.763 275.261 245.165 276.461 253.571C277.66 261.976 279.198 271.109 279.198 271.109C279.198 271.109 279.659 293.598 285.656 295.199C291.653 296.8 293.252 293.598 293.252 293.598C293.252 293.598 300.069 276.024 298.05 270.782C295.606 264.438 292.084 257.314 293.252 255.172C294.402 253.064 292.453 241.563 283.657 242.763Z" fill="#2F2E41"/>
<path d="M288.455 132.289C288.455 132.289 285.256 132.689 280.059 133.49C274.862 134.29 271.263 130.288 268.465 131.088C265.666 131.889 242.478 137.493 242.478 137.493L246.076 165.111C246.076 165.111 241.678 197.133 242.478 202.737C243.277 208.34 232.883 207.54 238.88 214.344C244.877 221.149 255.271 227.153 276.461 225.152C297.65 223.15 300.449 223.551 300.449 220.348C300.449 217.146 295.651 189.928 297.25 187.526C298.849 185.125 302.048 182.323 300.449 179.521C298.849 176.719 297.25 175.118 299.649 172.716C302.048 170.315 303.247 167.913 303.247 166.712C303.247 165.511 308.844 145.898 308.844 145.898C308.844 145.898 306.446 136.292 303.647 135.892C300.848 135.491 298.45 133.49 296.451 133.49C294.452 133.49 293.252 133.89 292.053 133.49L288.455 132.289Z" fill="#F0F0F0"/>
<path d="M253.57 109.908C255.412 109.665 257.312 108.56 258.332 107.883C259.493 109.005 266.638 115.481 278.917 117.36C278.917 117.36 278.945 117.116 279.015 116.704L283.223 117.423L291.006 116.665C290.967 116.797 290.943 116.87 290.943 116.87C290.943 116.87 292.056 116.569 292.442 114.051C292.516 113.568 292.605 113.088 292.71 112.611C293.336 109.752 294.855 99.4481 286.238 92.5619C279.964 87.5486 272.734 89.1306 268.162 91.0438C266.305 91.8137 264.621 92.9511 263.213 94.388C261.806 95.8248 260.702 97.5315 259.969 99.4057C259.595 100.343 259.345 101.325 259.226 102.327L259.048 102.836C257.66 103.03 254.873 101.863 253.375 102.415C251.328 103.17 250.321 106.263 250.116 107.188C249.91 108.113 250.872 110.263 253.57 109.908ZM280.078 112.816C281.187 109.96 283.278 106.84 287.111 106.996C291.085 107.157 291.782 110.317 291.642 113.019L281.754 113.379L280.078 112.816Z" fill="#2F2E41"/>
<path d="M281.006 89.9153C281.067 89.5546 280.345 89.1302 279.393 88.9675C278.441 88.8048 277.619 88.9653 277.557 89.3261C277.496 89.6869 278.218 90.1112 279.17 90.2739C280.122 90.4367 280.944 90.2761 281.006 89.9153Z" fill="#2F2E41"/>
<path d="M148.325 20.814C154.066 20.814 158.72 16.1546 158.72 10.407C158.72 4.65938 154.066 0 148.325 0C142.584 0 137.931 4.65938 137.931 10.407C137.931 16.1546 142.584 20.814 148.325 20.814Z" fill="#FA9691"/>
<path d="M131.146 76.5486C131.111 76.4081 127.631 62.3277 127.036 47.498C126.686 38.7665 127.39 31.481 129.128 25.8432C131.324 18.7192 135.185 14.2057 140.605 12.4283L140.854 13.189C129.113 17.0398 127.294 33.9543 127.835 47.4659C128.426 62.2143 131.887 76.2148 131.921 76.3543L131.146 76.5486Z" fill="#2F2E41"/>
<path d="M175.281 155.27C169.757 162.527 176.089 176.659 176.089 176.659C176.089 176.659 191.379 179.026 196.903 171.769C202.428 164.512 196.095 150.379 196.095 150.379C196.095 150.379 180.806 148.013 175.281 155.27Z" fill="#3F3D56"/>
<path d="M70.1929 167.147C74.7671 172.486 86.429 169.984 86.429 169.984C86.429 169.984 90.6745 158.826 86.1003 153.487C81.526 148.148 69.8642 150.65 69.8642 150.65C69.8642 150.65 65.6187 161.808 70.1929 167.147Z" fill="#3F3D56"/>
<path d="M195.311 186.477C150.608 162.14 115.379 163.432 93.6989 168.802C70.2303 174.614 57.1693 186.304 57.04 186.422L56.5028 185.829C56.6332 185.71 69.8445 173.885 93.5068 168.025C107.396 164.585 122.12 163.838 137.276 165.802C156.206 168.257 175.86 174.977 195.692 185.774L195.311 186.477Z" fill="#2F2E41"/>
<path d="M126.536 114.877H125.737V165.133H126.536V114.877Z" fill="#2F2E41"/>
<path d="M126.336 158.106C142.234 158.106 155.122 145.204 155.122 129.287C155.122 113.371 142.234 100.468 126.336 100.468C110.439 100.468 97.5508 113.371 97.5508 129.287C97.5508 145.204 110.439 158.106 126.336 158.106Z" fill="#3F3D56"/>
<path d="M126.336 102.469C138.26 102.469 147.925 92.7918 147.925 80.8545C147.925 68.9171 138.26 59.2399 126.336 59.2399C114.413 59.2399 104.747 68.9171 104.747 80.8545C104.747 92.7918 114.413 102.469 126.336 102.469Z" fill="#3F3D56"/>
<path d="M126.336 61.6415C135.61 61.6415 143.128 54.1148 143.128 44.8302C143.128 35.5455 135.61 28.0189 126.336 28.0189C117.063 28.0189 109.545 35.5455 109.545 44.8302C109.545 54.1148 117.063 61.6415 126.336 61.6415Z" fill="#3F3D56"/>
</svg>
